<svg width="26" height="26" viewBox="0 0 26 26" fill="none" xmlns="http://www.w3.org/2000/svg">
<g clip-path="url(#clip0_98_15)">
<path d="M22.23 16.4775L20.28 14.5167V9.68503C20.3059 7.89084 19.6818 6.14785 18.523 4.77789C17.3641 3.40794 15.7487 2.50354 13.975 2.23169C12.9456 2.09613 11.8992 2.18166 10.9055 2.48257C9.91179 2.78348 8.99369 3.29284 8.21245 3.97669C7.4312 4.66053 6.80478 5.50312 6.37498 6.44824C5.94519 7.39336 5.72189 8.41927 5.71999 9.45753V14.5167L3.76999 16.4775C3.52506 16.7265 3.35896 17.0422 3.29246 17.3851C3.22596 17.728 3.26201 18.0829 3.39611 18.4055C3.53021 18.728 3.7564 19.0038 4.04641 19.1985C4.33641 19.3932 4.67737 19.4981 5.02666 19.5H8.66666V19.8684C8.71726 20.9682 9.20177 22.0031 10.014 22.7463C10.8263 23.4895 11.9 23.8804 13 23.8334C14.1 23.8804 15.1737 23.4895 15.986 22.7463C16.7982 22.0031 17.2827 20.9682 17.3333 19.8684V19.5H20.9733C21.3226 19.4981 21.6636 19.3932 21.9536 19.1985C22.2436 19.0038 22.4698 18.728 22.6039 18.4055C22.738 18.0829 22.774 17.728 22.7075 17.3851C22.641 17.0422 22.4749 16.7265 22.23 16.4775V16.4775ZM15.1667 19.8684C15.1066 20.3894 14.8478 20.8673 14.4442 21.2023C14.0405 21.5373 13.5232 21.7036 13 21.6667C12.4768 21.7036 11.9595 21.5373 11.5558 21.2023C11.1522 20.8673 10.8934 20.3894 10.8333 19.8684V19.5H15.1667V19.8684ZM5.96916 17.3334L7.24749 16.055C7.45026 15.8535 7.61113 15.6138 7.72083 15.3497C7.83053 15.0857 7.88689 14.8026 7.88666 14.5167V9.45753C7.88725 8.72671 8.04416 8.00448 8.34685 7.3393C8.64955 6.67412 9.09103 6.08138 9.64166 5.60086C10.1849 5.10868 10.8285 4.74042 11.5281 4.52157C12.2277 4.30272 12.9665 4.2385 13.6933 4.33336C14.9462 4.53679 16.0834 5.18596 16.8955 6.16136C17.7077 7.13676 18.1402 8.37272 18.1133 9.64169V14.5167C18.1117 14.8018 18.1663 15.0845 18.2742 15.3485C18.382 15.6125 18.5408 15.8526 18.7417 16.055L20.0308 17.3334H5.96916Z" fill="black"/>
</g>
<defs>
<clipPath id="clip0_98_15">
<rect width="26" height="26" fill="white"/>
</clipPath>
</defs>
</svg>
