<svg width="26" height="26" viewBox="0 0 26 26" fill="none" xmlns="http://www.w3.org/2000/svg">
<g clip-path="url(#clip0_98_8)">
<path d="M22.8367 7.58324C22.6495 7.25891 22.3814 6.98863 22.0587 6.79876C21.7359 6.6089 21.3694 6.50593 20.995 6.4999H7.12834L6.50001 4.05157C6.43652 3.81523 6.29489 3.60734 6.09817 3.46177C5.90146 3.3162 5.66125 3.24153 5.41667 3.2499H3.25001C2.96269 3.2499 2.68714 3.36404 2.48397 3.5672C2.28081 3.77037 2.16667 4.04592 2.16667 4.33324C2.16667 4.62055 2.28081 4.8961 2.48397 5.09927C2.68714 5.30243 2.96269 5.41657 3.25001 5.41657H4.59334L7.58334 16.5316C7.64682 16.7679 7.78846 16.9758 7.98517 17.1214C8.18189 17.2669 8.4221 17.3416 8.66667 17.3332H18.4167C18.6167 17.3326 18.8127 17.2766 18.9829 17.1715C19.1531 17.0663 19.2908 16.9161 19.3808 16.7374L22.9342 9.63074C23.0882 9.30792 23.1599 8.952 23.1429 8.59473C23.1259 8.23746 23.0207 7.88996 22.8367 7.58324ZM17.745 15.1666H9.49001L7.72417 8.66657H20.995L17.745 15.1666Z" fill="white"/>
<path d="M8.125 22.75C9.02246 22.75 9.75 22.0225 9.75 21.125C9.75 20.2275 9.02246 19.5 8.125 19.5C7.22754 19.5 6.5 20.2275 6.5 21.125C6.5 22.0225 7.22754 22.75 8.125 22.75Z" fill="white"/>
<path d="M18.9583 22.75C19.8558 22.75 20.5833 22.0225 20.5833 21.125C20.5833 20.2275 19.8558 19.5 18.9583 19.5C18.0609 19.5 17.3333 20.2275 17.3333 21.125C17.3333 22.0225 18.0609 22.75 18.9583 22.75Z" fill="white"/>
</g>
<defs>
<clipPath id="clip0_98_8">
<rect width="26" height="26" fill="white"/>
</clipPath>
</defs>
</svg>
