<?xml version="1.0" encoding="UTF-8"?>
<svg xmlns="http://www.w3.org/2000/svg" xmlns:xlink="http://www.w3.org/1999/xlink" width="24px" height="19px" viewBox="0 0 23 19" version="1.1">
<g id="surface1">
<path style=" stroke:none;fill-rule:nonzero;fill:rgb(0%,0%,0%);fill-opacity:1;" d="M 2.117188 1.5625 C 2.222656 1.335938 2.460938 1.207031 2.703125 1.238281 L 11.5 2.375 L 20.296875 1.238281 C 20.539062 1.210938 20.777344 1.339844 20.882812 1.5625 L 22.382812 4.65625 C 22.707031 5.320312 22.359375 6.125 21.671875 6.332031 L 15.796875 8.0625 C 15.296875 8.210938 14.761719 7.992188 14.496094 7.53125 L 11.5 2.375 L 8.503906 7.53125 C 8.238281 7.992188 7.703125 8.210938 7.203125 8.0625 L 1.332031 6.332031 C 0.640625 6.125 0.296875 5.320312 0.621094 4.65625 Z M 11.539062 4.75 L 13.511719 8.140625 C 14.046875 9.0625 15.117188 9.5 16.117188 9.203125 L 20.699219 7.851562 L 20.699219 14.050781 C 20.699219 14.867188 20.160156 15.578125 19.390625 15.777344 L 12.058594 17.671875 C 11.691406 17.769531 11.304688 17.769531 10.941406 17.671875 L 3.609375 15.777344 C 2.839844 15.574219 2.300781 14.863281 2.300781 14.046875 L 2.300781 7.847656 L 6.886719 9.203125 C 7.882812 9.5 8.957031 9.0625 9.492188 8.140625 L 11.460938 4.75 Z M 11.539062 4.75 "/>
</g>
</svg>
