<?xml version="1.0" standalone="no"?>
<!DOCTYPE svg PUBLIC "-//W3C//DTD SVG 20010904//EN"
 "http://www.w3.org/TR/2001/REC-SVG-20010904/DTD/svg10.dtd">
<svg version="1.0" xmlns="http://www.w3.org/2000/svg"
 width="640.000000pt" height="640.000000pt" viewBox="0 0 640.000000 640.000000"
 preserveAspectRatio="xMidYMid meet">

<g transform="translate(0.000000,640.000000) scale(0.100000,-0.100000)"
fill="#000000" stroke="none">
<path d="M1345 5329 c-165 -24 -295 -90 -429 -218 -121 -117 -202 -251 -248
-416 l-23 -80 -3 -1370 c-2 -931 1 -1396 8 -1452 44 -336 290 -625 615 -720
56 -17 152 -18 1350 -21 1374 -3 1375 -3 1509 45 212 76 412 276 496 494 52
136 60 214 60 601 l0 350 -29 29 c-21 21 -39 29 -65 29 -31 0 -44 -10 -119
-87 -46 -49 -100 -106 -118 -127 l-34 -39 -6 -271 c-5 -284 -7 -293 -58 -393
-29 -58 -111 -143 -172 -180 -110 -66 -44 -63 -1419 -63 -1375 0 -1309 -3
-1419 63 -64 38 -143 122 -175 186 -59 116 -56 33 -56 1501 0 1177 2 1353 15
1405 46 174 191 312 364 345 35 6 485 10 1275 10 1001 0 1233 -3 1286 -14 85
-18 100 -10 208 105 72 79 82 94 82 127 0 68 -41 101 -181 144 l-74 23 -1290
1 c-710 1 -1317 -2 -1350 -7z"/>
<path d="M4934 5285 c-37 -18 -90 -67 -197 -181 l-147 -156 63 -67 c34 -37
220 -235 412 -439 l350 -372 118 122 c153 160 202 224 217 289 17 68 8 155
-21 212 -20 39 -211 248 -472 520 -70 73 -121 96 -208 97 -50 0 -77 -6 -115
-25z"/>
<path d="M3442 3730 l-962 -1020 0 -440 0 -440 413 0 412 1 905 960 c498 528
931 989 962 1023 l58 64 -366 388 c-201 214 -387 411 -413 437 l-48 48 -961
-1021z m1003 585 c41 -40 33 -67 -47 -153 -368 -397 -975 -1033 -990 -1038
-30 -9 -72 26 -76 65 -3 27 6 41 56 94 32 34 246 262 476 507 480 511 518 550
541 550 9 0 27 -11 40 -25z m-1137 -1615 l212 -224 -23 -26 c-13 -14 -88 -94
-167 -177 l-143 -153 -79 0 -78 0 0 145 0 144 -137 3 -138 3 0 86 0 86 160
171 c88 94 165 171 171 169 6 -1 106 -103 222 -227z"/>
</g>
</svg>
