<svg width="26" height="26" viewBox="0 0 26 26" fill="none" xmlns="http://www.w3.org/2000/svg">
<g clip-path="url(#clip0_60_28)">
<path d="M13 22.7499C12.8574 22.7507 12.7161 22.7234 12.5841 22.6695C12.4521 22.6156 12.3321 22.5361 12.2308 22.4357L3.81333 14.0074C2.75747 12.9405 2.16522 11.5001 2.16522 9.99906C2.16522 8.49803 2.75747 7.05762 3.81333 5.99073C4.87745 4.92962 6.3189 4.33374 7.82167 4.33374C9.32443 4.33374 10.7659 4.92962 11.83 5.99073L13 7.16073L14.17 5.99073C15.2341 4.92962 16.6756 4.33374 18.1783 4.33374C19.6811 4.33374 21.1226 4.92962 22.1867 5.99073C23.2425 7.05762 23.8348 8.49803 23.8348 9.99906C23.8348 11.5001 23.2425 12.9405 22.1867 14.0074L13.7692 22.4357C13.6679 22.5361 13.5479 22.6156 13.4159 22.6695C13.2839 22.7234 13.1426 22.7507 13 22.7499ZM7.82167 6.4999C7.36307 6.49782 6.90861 6.58676 6.48463 6.76156C6.06064 6.93636 5.67555 7.19355 5.35167 7.51823C4.6974 8.17594 4.33012 9.06593 4.33012 9.99365C4.33012 10.9214 4.6974 11.8113 5.35167 12.4691L13 20.1282L20.6483 12.4691C21.3026 11.8113 21.6699 10.9214 21.6699 9.99365C21.6699 9.06593 21.3026 8.17594 20.6483 7.51823C19.9806 6.88741 19.0969 6.53597 18.1783 6.53597C17.2598 6.53597 16.376 6.88741 15.7083 7.51823L13.7692 9.46823C13.6685 9.56977 13.5486 9.65036 13.4166 9.70536C13.2846 9.76036 13.143 9.78868 13 9.78868C12.857 9.78868 12.7154 9.76036 12.5834 9.70536C12.4514 9.65036 12.3315 9.56977 12.2308 9.46823L10.2917 7.51823C9.96778 7.19355 9.58269 6.93636 9.15871 6.76156C8.73472 6.58676 8.28027 6.49782 7.82167 6.4999V6.4999Z" fill="black"/>
</g>
<defs>
<clipPath id="clip0_60_28">
<rect width="26" height="26" fill="white"/>
</clipPath>
</defs>
</svg>
