<svg width="26" height="26" viewBox="0 0 26 26" fill="none" xmlns="http://www.w3.org/2000/svg">
<g clip-path="url(#clip0_70_47)">
<path d="M13 22.7499C12.8574 22.7507 12.7161 22.7234 12.5841 22.6695C12.4521 22.6156 12.3321 22.5361 12.2308 22.4357L3.81333 14.0074C2.75747 12.9405 2.16522 11.5001 2.16522 9.99906C2.16522 8.49803 2.75747 7.05762 3.81333 5.99073C4.87745 4.92962 6.3189 4.33374 7.82167 4.33374C9.32443 4.33374 10.7659 4.92962 11.83 5.99073L13 7.16073L14.17 5.99073C15.2341 4.92962 16.6756 4.33374 18.1783 4.33374C19.6811 4.33374 21.1226 4.92962 22.1867 5.99073C23.2425 7.05762 23.8348 8.49803 23.8348 9.99906C23.8348 11.5001 23.2425 12.9405 22.1867 14.0074L13.7692 22.4357C13.6679 22.5361 13.5479 22.6156 13.4159 22.6695C13.2839 22.7234 13.1426 22.7507 13 22.7499Z" fill="black"/>
</g>
<defs>
<clipPath id="clip0_70_47">
<rect width="26" height="26" fill="white"/>
</clipPath>
</defs>
</svg>
