<svg width="26" height="26" viewBox="0 0 26 26" fill="none" xmlns="http://www.w3.org/2000/svg">
<g clip-path="url(#clip0_69_41)">
<path d="M13 4C12.5811 4 12.1855 4.17105 11.8953 4.32422C11.5758 4.4928 11.2364 4.72113 10.8956 4.9775C10.2118 5.49192 9.43703 6.18436 8.67184 6.92344C7.1403 8.40271 5.56419 10.1496 4.69636 11.237C4.17432 11.8911 4.02169 12.7105 4.15458 13.4635L5.22361 19.5214C5.47659 20.9549 6.72224 22 8.17796 22H17.822C19.2778 22 20.5234 20.9549 20.7764 19.5214L21.8193 13.6116C21.976 12.7233 21.7265 11.805 21.1184 11.1218C20.2805 10.1807 18.7242 8.46478 17.2181 6.97915C16.4674 6.23861 15.7105 5.53664 15.051 5.01357C14.7226 4.75317 14.3965 4.51943 14.092 4.34595C13.8259 4.19433 13.4288 4 13 4Z" fill="black" stroke="black" stroke-width="2"/>
</g>
<defs>
<clipPath id="clip0_69_41">
<rect width="26" height="26" fill="white"/>
</clipPath>
</defs>
</svg>
