<?xml version="1.0" encoding="UTF-8"?>
<svg xmlns="http://www.w3.org/2000/svg" xmlns:xlink="http://www.w3.org/1999/xlink" width="24px" height="21px" viewBox="0 0 23 21" version="1.1">
<g id="surface1">
<path style=" stroke:none;fill-rule:nonzero;fill:rgb(0%,0%,0%);fill-opacity:1;" d="M 5.109375 7.875 C 4.40625 7.875 3.832031 7.289062 3.832031 6.5625 C 3.832031 5.835938 4.40625 5.25 5.109375 5.25 C 5.816406 5.25 6.390625 5.835938 6.390625 6.5625 C 6.390625 7.289062 5.816406 7.875 5.109375 7.875 Z M 7.984375 6.5625 C 7.984375 6.015625 8.414062 5.578125 8.945312 5.578125 L 17.890625 5.578125 C 18.421875 5.578125 18.847656 6.015625 18.847656 6.5625 C 18.847656 7.109375 18.421875 7.546875 17.890625 7.546875 L 8.945312 7.546875 C 8.414062 7.546875 7.984375 7.109375 7.984375 6.5625 Z M 7.984375 10.5 C 7.984375 9.953125 8.414062 9.515625 8.945312 9.515625 L 17.890625 9.515625 C 18.421875 9.515625 18.847656 9.953125 18.847656 10.5 C 18.847656 11.046875 18.421875 11.484375 17.890625 11.484375 L 8.945312 11.484375 C 8.414062 11.484375 7.984375 11.046875 7.984375 10.5 Z M 7.984375 14.4375 C 7.984375 13.890625 8.414062 13.453125 8.945312 13.453125 L 17.890625 13.453125 C 18.421875 13.453125 18.847656 13.890625 18.847656 14.4375 C 18.847656 14.984375 18.421875 15.421875 17.890625 15.421875 L 8.945312 15.421875 C 8.414062 15.421875 7.984375 14.984375 7.984375 14.4375 Z M 5.109375 9.1875 C 5.816406 9.1875 6.390625 9.773438 6.390625 10.5 C 6.390625 11.226562 5.816406 11.8125 5.109375 11.8125 C 4.40625 11.8125 3.832031 11.226562 3.832031 10.5 C 3.832031 9.773438 4.40625 9.1875 5.109375 9.1875 Z M 5.109375 15.75 C 4.40625 15.75 3.832031 15.164062 3.832031 14.4375 C 3.832031 13.710938 4.40625 13.125 5.109375 13.125 C 5.816406 13.125 6.390625 13.710938 6.390625 14.4375 C 6.390625 15.164062 5.816406 15.75 5.109375 15.75 Z M 0 3.9375 C 0 2.488281 1.144531 1.3125 2.554688 1.3125 L 20.445312 1.3125 C 21.855469 1.3125 23 2.488281 23 3.9375 L 23 17.0625 C 23 18.511719 21.855469 19.6875 20.445312 19.6875 L 2.554688 19.6875 C 1.144531 19.6875 0 18.511719 0 17.0625 Z M 1.917969 3.9375 L 1.917969 17.0625 C 1.917969 17.421875 2.203125 17.71875 2.554688 17.71875 L 20.445312 17.71875 C 20.796875 17.71875 21.082031 17.421875 21.082031 17.0625 L 21.082031 3.9375 C 21.082031 3.574219 20.796875 3.28125 20.445312 3.28125 L 2.554688 3.28125 C 2.203125 3.28125 1.917969 3.574219 1.917969 3.9375 Z M 1.917969 3.9375 "/>
</g>
</svg>
