<?xml version="1.0" encoding="UTF-8"?>
<svg xmlns="http://www.w3.org/2000/svg" xmlns:xlink="http://www.w3.org/1999/xlink" width="24px" height="24px" viewBox="0 0 24 24" version="1.1">
<g id="surface1">
<path style=" stroke:none;fill-rule:nonzero;fill:rgb(0%,0%,0%);fill-opacity:1;" d="M 0 4.5 C 0 3.671875 0.765625 3 1.710938 3 L 22.289062 3 C 23.234375 3 24 3.671875 24 4.5 C 24 5.328125 23.234375 6 22.289062 6 L 1.710938 6 C 0.765625 6 0 5.328125 0 4.5 Z M 0 12 C 0 11.171875 0.765625 10.5 1.710938 10.5 L 22.289062 10.5 C 23.234375 10.5 24 11.171875 24 12 C 24 12.828125 23.234375 13.5 22.289062 13.5 L 1.710938 13.5 C 0.765625 13.5 0 12.828125 0 12 Z M 24 19.5 C 24 20.328125 23.234375 21 22.289062 21 L 1.710938 21 C 0.765625 21 0 20.328125 0 19.5 C 0 18.671875 0.765625 18 1.710938 18 L 22.289062 18 C 23.234375 18 24 18.671875 24 19.5 Z M 24 19.5 "/>
</g>
</svg>
