<?xml version="1.0" encoding="UTF-8"?>
<svg xmlns="http://www.w3.org/2000/svg" xmlns:xlink="http://www.w3.org/1999/xlink" width="24px" height="24px" viewBox="0 0 24 24" version="1.1">
<g id="surface1">
<path style=" stroke:none;fill-rule:nonzero;fill:rgb(0%,0%,0%);fill-opacity:1;" d="M 0 4.5 C 0 3.671875 0.671875 3 1.5 3 L 19.5 3 C 20.328125 3 21 3.671875 21 4.5 C 21 5.328125 20.328125 6 19.5 6 L 1.5 6 C 0.671875 6 0 5.328125 0 4.5 Z M 3 12 C 3 11.171875 3.671875 10.5 4.5 10.5 L 22.5 10.5 C 23.328125 10.5 24 11.171875 24 12 C 24 12.828125 23.328125 13.5 22.5 13.5 L 4.5 13.5 C 3.671875 13.5 3 12.828125 3 12 Z M 21 19.5 C 21 20.328125 20.328125 21 19.5 21 L 1.5 21 C 0.671875 21 0 20.328125 0 19.5 C 0 18.671875 0.671875 18 1.5 18 L 19.5 18 C 20.328125 18 21 18.671875 21 19.5 Z M 21 19.5 "/>
</g>
</svg>
