<svg width="26" height="26" viewBox="0 0 26 26" fill="none" xmlns="http://www.w3.org/2000/svg">
<g clip-path="url(#clip0_71_52)">
<path d="M13 11.9167C13.8571 11.9167 14.6949 11.6625 15.4075 11.1864C16.1201 10.7102 16.6755 10.0334 17.0035 9.24163C17.3315 8.44982 17.4173 7.57853 17.2501 6.73794C17.0829 5.89736 16.6702 5.12523 16.0641 4.51921C15.4581 3.91318 14.686 3.50047 13.8454 3.33327C13.0048 3.16606 12.1335 3.25188 11.3417 3.57986C10.5499 3.90784 9.87312 4.46325 9.39697 5.17586C8.92082 5.88848 8.66667 6.72628 8.66667 7.58334C8.66667 8.73261 9.12322 9.83481 9.93588 10.6475C10.7485 11.4601 11.8507 11.9167 13 11.9167Z" fill="black"/>
<path d="M19.5 22.7499C19.7873 22.7499 20.0629 22.6358 20.266 22.4326C20.4692 22.2295 20.5833 21.9539 20.5833 21.6666C20.5833 19.6554 19.7844 17.7265 18.3622 16.3044C16.9401 14.8822 15.0112 14.0833 13 14.0833C10.9888 14.0833 9.05993 14.8822 7.63778 16.3044C6.21563 17.7265 5.41667 19.6554 5.41667 21.6666C5.41667 21.9539 5.53081 22.2295 5.73397 22.4326C5.93714 22.6358 6.21269 22.7499 6.50001 22.7499H19.5Z" fill="black"/>
</g>
<defs>
<clipPath id="clip0_71_52">
<rect width="26" height="26" fill="white"/>
</clipPath>
</defs>
</svg>
