<svg width="26" height="26" viewBox="0 0 26 26" fill="none" xmlns="http://www.w3.org/2000/svg">
<g clip-path="url(#clip0_60_33)">
<path d="M13 11.9167C13.8571 11.9167 14.6949 11.6625 15.4075 11.1864C16.1201 10.7102 16.6755 10.0334 17.0035 9.24163C17.3315 8.44982 17.4173 7.57853 17.2501 6.73794C17.0829 5.89736 16.6702 5.12523 16.0641 4.51921C15.4581 3.91318 14.686 3.50047 13.8454 3.33327C13.0048 3.16606 12.1335 3.25188 11.3417 3.57986C10.5499 3.90784 9.87312 4.46325 9.39697 5.17586C8.92082 5.88848 8.66667 6.72628 8.66667 7.58334C8.66667 8.73261 9.12322 9.83481 9.93588 10.6475C10.7485 11.4601 11.8507 11.9167 13 11.9167ZM13 5.41667C13.4285 5.41667 13.8474 5.54374 14.2037 5.78182C14.56 6.01989 14.8378 6.35828 15.0017 6.75419C15.1657 7.15009 15.2086 7.58574 15.125 8.00603C15.0414 8.42632 14.8351 8.81239 14.5321 9.1154C14.2291 9.41841 13.843 9.62477 13.4227 9.70837C13.0024 9.79197 12.5668 9.74906 12.1709 9.58507C11.775 9.42108 11.4366 9.14338 11.1985 8.78707C10.9604 8.43076 10.8333 8.01186 10.8333 7.58334C10.8333 7.0087 11.0616 6.4576 11.4679 6.05127C11.8743 5.64494 12.4254 5.41667 13 5.41667Z" fill="black"/>
<path d="M13 14.0833C10.9888 14.0833 9.05993 14.8822 7.63778 16.3044C6.21563 17.7265 5.41667 19.6554 5.41667 21.6666C5.41667 21.9539 5.53081 22.2295 5.73397 22.4326C5.93714 22.6358 6.21269 22.7499 6.50001 22.7499C6.78732 22.7499 7.06287 22.6358 7.26604 22.4326C7.4692 22.2295 7.58334 21.9539 7.58334 21.6666C7.58334 20.23 8.15402 18.8522 9.16984 17.8364C10.1857 16.8206 11.5634 16.2499 13 16.2499C14.4366 16.2499 15.8143 16.8206 16.8302 17.8364C17.846 18.8522 18.4167 20.23 18.4167 21.6666C18.4167 21.9539 18.5308 22.2295 18.734 22.4326C18.9371 22.6358 19.2127 22.7499 19.5 22.7499C19.7873 22.7499 20.0629 22.6358 20.266 22.4326C20.4692 22.2295 20.5833 21.9539 20.5833 21.6666C20.5833 19.6554 19.7844 17.7265 18.3622 16.3044C16.9401 14.8822 15.0112 14.0833 13 14.0833V14.0833Z" fill="black"/>
</g>
<defs>
<clipPath id="clip0_60_33">
<rect width="26" height="26" fill="white"/>
</clipPath>
</defs>
</svg>
