<?xml version="1.0" encoding="UTF-8"?>
<svg xmlns="http://www.w3.org/2000/svg" xmlns:xlink="http://www.w3.org/1999/xlink" width="21px" height="24px" viewBox="0 0 21 24" version="1.1">
<g id="surface1">
<path style=" stroke:none;fill-rule:nonzero;fill:rgb(0%,0%,0%);fill-opacity:1;" d="M 16.5 10.5 C 18.984375 10.5 21 8.484375 21 6 C 21 3.515625 18.984375 1.5 16.5 1.5 C 14.015625 1.5 12 3.515625 12 6 C 12 6.1875 12.007812 6.375 12.03125 6.558594 L 7.621094 8.761719 C 6.816406 7.976562 5.714844 7.5 4.5 7.5 C 2.015625 7.5 0 9.515625 0 12 C 0 14.484375 2.015625 16.5 4.5 16.5 C 5.714844 16.5 6.816406 16.023438 7.621094 15.238281 L 12.03125 17.441406 C 12.007812 17.625 12 17.808594 12 18 C 12 20.484375 14.015625 22.5 16.5 22.5 C 18.984375 22.5 21 20.484375 21 18 C 21 15.515625 18.984375 13.5 16.5 13.5 C 15.285156 13.5 14.183594 13.976562 13.378906 14.761719 L 8.96875 12.558594 C 8.992188 12.375 9 12.191406 9 12 C 9 11.808594 8.992188 11.625 8.96875 11.441406 L 13.378906 9.238281 C 14.183594 10.023438 15.285156 10.5 16.5 10.5 Z M 16.5 10.5 "/>
</g>
</svg>
